# xmcd
#
# Track frame offsets: 
#        150
#        14542
#        24573
#        40153
#        58377
#        67171
#        74588
#        87397
#        104093
#        117496
#        140351
#        152633
#        161071
#        174954
#        189915
#        207688
#        223202
#        238736
#        245042
#        257638
#        263444
#        278201
#        283708
#
# Disc length: 3950 seconds
#
# Revision: 0
# Processed by: cddbd v1.5.2PL0 Copyright (c) Steve Scherf et al.
# Submitted via: ExactAudioCopy v1.0b3
#
DISCID=6e0f6c17
DTITLE=Matti Norlin - Kitchen Sink Blues
DYEAR=1998
DGENRE=Blues
TTITLE0=Emigration blues
TTITLE1=Happy home blues
TTITLE2=Separation blues
TTITLE3=Sun's goin' down
TTITLE4=Retarded rag
TTITLE5=Hey hoe Silver!
TTITLE6=Low down blues
TTITLE7=I've found another way to live
TTITLE8=Leave this town behind
TTITLE9=Hear my soul cry
TTITLE10=Keep on tryin'
TTITLE11=Swingin' kazoo
TTITLE12=Learn from others mistakes
TTITLE13=Suitcase blues
TTITLE14=Set my ship on fire
TTITLE15=Bullshit blues
TTITLE16=Layin' down blues
TTITLE17=Sidewalk rag
TTITLE18=Mule kickin' blues
TTITLE19=Hangover blues
TTITLE20=Pickin' my blues away
TTITLE21=Catch the frog rag
TTITLE22=It's a lonesome road
EXTD=
EXTT0=
EXTT1=
EXTT2=
EXTT3=
EXTT4=
EXTT5=
EXTT6=
EXTT7=
EXTT8=
EXTT9=
EXTT10=
EXTT11=
EXTT12=
EXTT13=
EXTT14=
EXTT15=
EXTT16=
EXTT17=
EXTT18=
EXTT19=
EXTT20=
EXTT21=
EXTT22=
PLAYORDER=
